# xmcd
#
# Track frame offsets: 
#        150
#        20495
#        58546
#        79974
#        111423
#        134151
#        154991
#        180802
#        195635
#        215460
#        250275
#        274465
#        303920
#        317230
#
# Disc length: 4589 seconds
#
# Revision: 0
# Processed by: cddbd v1.4PL0 Copyright (c) Steve Scherf et al.
# Submitted via: ExactAudioCopy v0.90b4
#
DISCID=cf11eb0e
DTITLE=Buddy Guy - Buddy´s Baddest - The Best Of
DYEAR=1999
DGENRE=Blues
TTITLE0=Damn Right, I´ve Got The Blues
TTITLE1=Five Long Years
TTITLE2=Mustang Sally
TTITLE3=Rememberin´ Stevie
TTITLE4=She´s A Superstar
TTITLE5=Feels Like Rain
TTITLE6=She´s Nineteen Years Old
TTITLE7=I Smell Trouble
TTITLE8=Someone Else Is Steppin´ In
TTITLE9=My Time After Awhile (Live)
TTITLE10=Midnight Train featuring Jonny Lang
TTITLE11=Miss Ida B
TTITLE12=I Need Your Love So Bad
TTITLE13=Innocent Man
EXTD=
EXTT0=
EXTT1=
EXTT2=
EXTT3=
EXTT4=
EXTT5=
EXTT6=
EXTT7=
EXTT8=
EXTT9=
EXTT10=
EXTT11=
EXTT12=
EXTT13=
PLAYORDER=
